<svg width="24" height="23" viewBox="0 0 24 23" fill="none" xmlns="http://www.w3.org/2000/svg">
<g clip-path="url(#clip0_108_1334)">
<path d="M11.9999 10.8611C12.9229 10.8611 13.8252 10.5988 14.5926 10.1074C15.36 9.61601 15.9581 8.91755 16.3114 8.10036C16.6646 7.28316 16.757 6.38395 16.5769 5.51642C16.3969 4.6489 15.9524 3.85202 15.2998 3.22657C14.6471 2.60112 13.8156 2.17518 12.9103 2.00262C12.0051 1.83006 11.0668 1.91862 10.2141 2.25712C9.36134 2.59561 8.63251 3.16882 8.11973 3.90428C7.60695 4.63973 7.33325 5.50439 7.33325 6.38891C7.33325 7.57502 7.82492 8.71254 8.70009 9.55125C9.57526 10.39 10.7622 10.8611 11.9999 10.8611ZM11.9999 3.19447C12.6592 3.19447 13.3037 3.38182 13.8518 3.73283C14.4 4.08384 14.8272 4.58274 15.0795 5.16645C15.3318 5.75016 15.3978 6.39245 15.2692 7.01212C15.1406 7.63178 14.8231 8.20097 14.3569 8.64772C13.8908 9.09447 13.2968 9.39872 12.6502 9.52198C12.0036 9.64523 11.3334 9.58197 10.7243 9.34019C10.1152 9.09841 9.59462 8.68897 9.22835 8.16365C8.86208 7.63833 8.66659 7.02071 8.66659 6.38891C8.66659 5.54169 9.01777 4.72917 9.6429 4.1301C10.268 3.53102 11.1159 3.19447 11.9999 3.19447Z" fill="#333333"/>
<path d="M20.3133 15.5697C19.2441 14.4868 17.9558 13.6242 16.5269 13.0347C15.0981 12.4452 13.5589 12.1412 12.0033 12.1412C10.4476 12.1412 8.90838 12.4452 7.47956 13.0347C6.05074 13.6242 4.76238 14.4868 3.69325 15.5697C3.46146 15.807 3.33273 16.12 3.33325 16.445V19.8055C3.33325 20.1444 3.47373 20.4694 3.72378 20.7091C3.97383 20.9487 4.31296 21.0833 4.66659 21.0833H19.3333C19.6869 21.0833 20.026 20.9487 20.2761 20.7091C20.5261 20.4694 20.6666 20.1444 20.6666 19.8055V16.445C20.6689 16.1208 20.5426 15.8079 20.3133 15.5697ZM19.3333 19.8055H4.66659V16.4386C5.61141 15.4852 6.74878 14.7259 8.00949 14.2071C9.2702 13.6883 10.6279 13.4208 11.9999 13.4208C13.372 13.4208 14.7296 13.6883 15.9903 14.2071C17.2511 14.7259 18.3884 15.4852 19.3333 16.4386V19.8055Z" fill="#333333"/>
</g>
<defs>
<clipPath id="clip0_108_1334">
<rect width="24" height="23" fill="white"/>
</clipPath>
</defs>
</svg>
