<svg width="24" height="18" viewBox="0 0 24 18" fill="none" xmlns="http://www.w3.org/2000/svg">
<path d="M7.33625 0.549988L1.4375 6.44874M10.2179 14.1025H19.7567M10.2179 3.89749H19.7567M10.2179 8.99999H19.7567M7.33625 0.549988V5.39249C7.32918 5.67509 7.21193 5.94373 7.00953 6.14107C6.80713 6.33841 6.5356 6.44883 6.25292 6.44874H1.4375V16.3937C1.4375 16.6811 1.55164 16.9566 1.7548 17.1598C1.95797 17.3629 2.23352 17.4771 2.52083 17.4771H21.5333C21.8206 17.4771 22.0962 17.3629 22.2994 17.1598C22.5025 16.9566 22.6167 16.6811 22.6167 16.3937V1.60624C22.6096 1.32364 22.4923 1.055 22.2899 0.857654C22.0875 0.660311 21.816 0.549899 21.5333 0.549988H7.33625ZM6.04167 9.37915C6.66802 9.37915 7.26872 9.62797 7.71162 10.0709C8.15451 10.5138 8.40333 11.1145 8.40333 11.7408C8.40333 12.3672 8.15451 12.9679 7.71162 13.4108C7.26872 13.8537 6.66802 14.1025 6.04167 14.1025C5.73674 14.0976 5.43579 14.0325 5.15604 13.9111C4.8763 13.7896 4.62326 13.6142 4.41143 13.3948C4.19959 13.1754 4.03312 12.9164 3.92155 12.6326C3.80998 12.3488 3.75551 12.0457 3.76125 11.7408V11.7408C3.75551 11.4359 3.80998 11.1329 3.92155 10.849C4.03312 10.5652 4.19959 10.3062 4.41143 10.0868C4.62326 9.86743 4.8763 9.692 5.15604 9.57057C5.43579 9.44913 5.73674 9.38409 6.04167 9.37915V9.37915Z" stroke="#333333" stroke-linecap="round" stroke-linejoin="round"/>
</svg>
