<svg width="22" height="22" viewBox="0 0 22 22" fill="none" xmlns="http://www.w3.org/2000/svg">
<path d="M18.2189 16.7236H3.78125C3.56765 16.7236 3.39453 16.5505 3.39453 16.3369V9.11816C3.39453 4.9245 6.80629 1.5127 11 1.5127C15.1938 1.5127 18.6057 4.9245 18.6057 9.11816V16.3369C18.6056 16.5505 18.4325 16.7236 18.2189 16.7236ZM4.16797 15.9502H17.8322V9.11816C17.8322 5.35097 14.7673 2.28613 11 2.28613C7.23284 2.28613 4.16797 5.35097 4.16797 9.11816V15.9502Z" fill="#333333"/>
<path d="M18.2189 16.7236H3.78125C3.56765 16.7236 3.39453 16.5505 3.39453 16.3369V9.11816C3.39453 4.9245 6.80629 1.5127 11 1.5127C15.1938 1.5127 18.6057 4.9245 18.6057 9.11816V16.3369C18.6056 16.5505 18.4325 16.7236 18.2189 16.7236ZM4.16797 15.9502H17.8322V9.11816C17.8322 5.35097 14.7673 2.28613 11 2.28613C7.23284 2.28613 4.16797 5.35097 4.16797 9.11816V15.9502Z" fill="#333333"/>
<path d="M20.0278 13.2109C19.8142 13.2109 19.6411 13.0378 19.6411 12.8242V8.77526C19.6411 7.68188 19.4289 6.61531 19.0105 5.60524C18.5922 4.59518 17.988 3.69107 17.2148 2.91793C17.0638 2.7669 17.0638 2.52206 17.2148 2.37103C17.3659 2.21999 17.6107 2.21999 17.7617 2.37103C18.6071 3.21631 19.2676 4.20489 19.7251 5.30923C20.1826 6.41366 20.4146 7.57979 20.4146 8.7753V12.8243C20.4146 13.0378 20.2414 13.2109 20.0278 13.2109Z" fill="#333333"/>
<path d="M1.97217 13.211C1.75857 13.211 1.58545 13.0378 1.58545 12.8242V8.77529C1.58545 7.57977 1.81739 6.41364 2.27488 5.30926C2.73233 4.20488 3.39293 3.21634 4.23821 2.37106C4.38929 2.22006 4.63408 2.22006 4.78512 2.37106C4.93615 2.52205 4.93611 2.76693 4.78512 2.91796C4.01198 3.69106 3.40784 4.59521 2.98945 5.60523C2.57102 6.61529 2.35889 7.68187 2.35889 8.77529V12.8242C2.35889 13.0378 2.18572 13.211 1.97217 13.211Z" fill="#333333"/>
<path d="M11 20.4872C9.46754 20.4872 8.10178 19.5147 7.60141 18.0673C7.53162 17.8654 7.6387 17.6452 7.84053 17.5755C8.04235 17.5055 8.26261 17.6127 8.33235 17.8146C8.72508 18.9506 9.79702 19.7138 10.9998 19.7138C12.2028 19.7138 13.2747 18.9505 13.6674 17.8146C13.7372 17.6127 13.9574 17.5056 14.1593 17.5755C14.3611 17.6452 14.4682 17.8655 14.3984 18.0673C13.8981 19.5147 12.5324 20.4872 11 20.4872Z" fill="#333333"/>
<path d="M18.4479 18.3277H3.55205C3.23464 18.3277 2.93614 18.204 2.7115 17.9794C2.4869 17.7548 2.36328 17.4564 2.36328 17.1391C2.36328 16.8218 2.48682 16.5234 2.71107 16.2985C2.93584 16.0737 3.23439 15.9502 3.55205 15.9502H18.448C18.7658 15.9502 19.0643 16.0737 19.2886 16.2981C19.5134 16.5234 19.6369 16.8218 19.6369 17.1387V17.1391C19.6369 17.4563 19.5133 17.7548 19.2886 17.9794C19.0673 18.2007 18.7608 18.3277 18.4479 18.3277ZM3.55205 16.7236C3.44094 16.7236 3.33661 16.7667 3.25832 16.845C3.18003 16.9235 3.13672 17.0279 3.13672 17.1387C3.13672 17.2498 3.1799 17.354 3.25836 17.4324C3.33691 17.5109 3.44124 17.5542 3.55205 17.5542H18.448C18.5573 17.5542 18.6643 17.5098 18.7417 17.4324C18.8202 17.3539 18.8635 17.2498 18.8635 17.1391V17.1387C18.8635 17.028 18.8201 16.9236 18.7413 16.8446C18.6635 16.7667 18.5591 16.7236 18.4479 16.7236H3.55205Z" fill="#333333"/>
</svg>
