<svg width="20" height="22" viewBox="0 0 20 22" fill="none" xmlns="http://www.w3.org/2000/svg">
<path d="M15.1828 9.64448H14.5146C14.445 8.74416 14.0861 7.92371 13.5313 7.27587L14.0053 6.80188C14.1312 6.67598 14.1312 6.47197 14.0053 6.34611C13.8795 6.2203 13.6755 6.2203 13.5496 6.34611L13.0756 6.8201C12.4277 6.26525 11.6073 5.90646 10.707 5.83685V5.16864C10.707 4.99062 10.5627 4.84637 10.3847 4.84637C10.2067 4.84637 10.0624 4.99062 10.0624 5.16864V5.83685C9.1621 5.90646 8.3417 6.26529 7.69381 6.8201L7.21983 6.34611C7.09397 6.2203 6.88991 6.2203 6.7641 6.34611C6.63824 6.47201 6.63824 6.67603 6.7641 6.80188L7.23809 7.27587C6.68323 7.92375 6.32444 8.7442 6.25483 9.64448H5.58667C5.40869 9.64448 5.2644 9.78873 5.2644 9.96675C5.2644 10.1448 5.40869 10.289 5.58667 10.289H6.25483C6.32444 11.1893 6.68323 12.0097 7.23809 12.6576L6.7641 13.1316C6.63824 13.2575 6.63824 13.4615 6.7641 13.5874C6.82701 13.6503 6.90951 13.6817 6.99196 13.6817C7.07442 13.6817 7.15692 13.6503 7.21983 13.5874L7.69381 13.1134C8.3417 13.6682 9.1621 14.027 10.0624 14.0966V14.7649C10.0624 14.9429 10.2067 15.0871 10.3847 15.0871C10.5627 15.0871 10.707 14.9429 10.707 14.7649V14.0966C11.6073 14.027 12.4277 13.6682 13.0756 13.1134L13.5496 13.5874C13.6125 13.6503 13.695 13.6817 13.7774 13.6817C13.8599 13.6817 13.9424 13.6503 14.0053 13.5874C14.1311 13.4615 14.1311 13.2575 14.0053 13.1316L13.5313 12.6577C14.0861 12.0098 14.4449 11.1894 14.5145 10.2891H15.1827C15.3607 10.2891 15.505 10.1448 15.505 9.96679C15.505 9.78873 15.3607 9.64448 15.1828 9.64448ZM10.3846 13.4645C8.45595 13.4645 6.88682 11.8954 6.88682 9.96675C6.88682 8.03801 8.45595 6.46892 10.3846 6.46892C12.3134 6.46892 13.8825 8.03805 13.8825 9.96675C13.8825 11.8954 12.3134 13.4645 10.3846 13.4645Z" fill="#333333"/>
<path d="M12.5918 9.64453H12.0241C11.8734 8.87676 11.1957 8.29565 10.3845 8.29565C9.46301 8.29565 8.71338 9.04529 8.71338 9.96679C8.71338 10.8882 9.46301 11.6379 10.3845 11.6379C11.1957 11.6379 11.8735 11.0568 12.0241 10.2891H12.5918C12.7698 10.2891 12.9141 10.1448 12.9141 9.96679C12.9141 9.78878 12.7698 9.64453 12.5918 9.64453ZM10.3844 10.9934C9.81836 10.9934 9.35787 10.5328 9.35787 9.96679C9.35787 9.40072 9.81836 8.94019 10.3844 8.94019C10.9505 8.94019 11.411 9.40072 11.411 9.96679C11.411 10.5328 10.9505 10.9934 10.3844 10.9934Z" fill="#333333"/>
<path d="M18.5703 0H1.42969C0.659688 0 0.0332031 0.626441 0.0332031 1.39648V9.26449C0.0332031 9.44251 0.177492 9.58676 0.355469 9.58676C0.533445 9.58676 0.677734 9.44251 0.677734 9.26449V8.19637H1.98368V11.7371H0.677734V10.669C0.677734 10.491 0.533445 10.3467 0.355469 10.3467C0.177492 10.3467 0.0332031 10.491 0.0332031 10.669V18.537C0.0332031 19.3071 0.659688 19.9335 1.42969 19.9335H1.98368V21.248C1.98368 21.6627 2.32103 22 2.73564 22H4.64195C5.05655 22 5.3939 21.6627 5.3939 21.248V19.9335H14.6061V21.248C14.6061 21.6627 14.9434 22 15.3581 22H17.2644C17.679 22 18.0163 21.6627 18.0163 21.248V19.9335H18.5703C19.3403 19.9335 19.9668 19.3071 19.9668 18.537V16.2165C19.9668 16.0385 19.8225 15.8943 19.6445 15.8943C19.4666 15.8943 19.3223 16.0385 19.3223 16.2165V18.537C19.3223 18.9516 18.9849 19.289 18.5703 19.289H1.42969C1.01508 19.289 0.677734 18.9516 0.677734 18.537V15.8366H1.98368V17.2311C1.98368 17.6457 2.32103 17.983 2.73564 17.983H17.2643C17.6789 17.983 18.0163 17.6457 18.0163 17.2311V12.3817H19.3222V14.812C19.3222 14.99 19.4665 15.1343 19.6445 15.1343C19.8225 15.1343 19.9668 14.99 19.9668 14.812V1.39648C19.9668 0.626441 19.3403 0 18.5703 0ZM4.74937 21.248C4.74937 21.3073 4.70116 21.3555 4.64195 21.3555H2.73564C2.67638 21.3555 2.62822 21.3073 2.62822 21.248V19.9335H4.74937V21.248ZM17.3717 21.248C17.3717 21.3073 17.3236 21.3555 17.2643 21.3555H15.358C15.2988 21.3555 15.2506 21.3073 15.2506 21.248V19.9335H17.3717V21.248ZM0.677734 4.74147H2.30595H2.9922C3.05141 4.74147 3.09963 4.78964 3.09963 4.84889V7.44442C3.09963 7.50368 3.05141 7.55184 2.9922 7.55184H2.30595H0.677734V4.74147ZM0.677734 12.3817H2.30595H2.9922C3.05141 12.3817 3.09963 12.4298 3.09963 12.4891V15.0846C3.09963 15.1439 3.05141 15.192 2.9922 15.192H2.30595H0.677734V12.3817ZM17.3717 17.2311C17.3717 17.2904 17.3236 17.3385 17.2643 17.3385H2.73564C2.67638 17.3385 2.62822 17.2904 2.62822 17.2311V15.8366H2.9922C3.40681 15.8366 3.74416 15.4993 3.74416 15.0846V12.4891C3.74416 12.0745 3.40681 11.7371 2.9922 11.7371H2.62822V8.19637H2.9922C3.40681 8.19637 3.74416 7.85903 3.74416 7.44442V4.84889C3.74416 4.43429 3.40681 4.09694 2.9922 4.09694H2.62822V2.70243C2.62822 2.64318 2.67638 2.59501 2.73564 2.59501H7.24641C7.42439 2.59501 7.56868 2.45077 7.56868 2.27275C7.56868 2.09473 7.42439 1.95048 7.24641 1.95048H2.73564C2.32103 1.95048 1.98368 2.28783 1.98368 2.70243V4.09694H0.677734V1.39648C0.677734 0.981879 1.01508 0.644531 1.42969 0.644531H18.5702C18.9848 0.644531 19.3222 0.981879 19.3222 1.39648V7.55184H18.0162V2.70243C18.0162 2.28783 17.6789 1.95048 17.2643 1.95048H8.65093C8.47295 1.95048 8.32866 2.09473 8.32866 2.27275C8.32866 2.45077 8.47295 2.59501 8.65093 2.59501H17.2643C17.3236 2.59501 17.3717 2.64318 17.3717 2.70243V17.2311ZM18.0163 11.7371V8.19637H19.3222V11.7371H18.0163Z" fill="#333333"/>
</svg>
